<svg xmlns="http://www.w3.org/2000/svg" xmlns:xlink="http://www.w3.org/1999/xlink" contentStyleType="text/css" data-diagram-type="CLASS" height="1569px" preserveAspectRatio="none" style="width:1514px;height:1569px;background:#FFFFFF;" version="1.1" viewBox="0 0 1514 1569" width="1514px" zoomAndPan="magnify"><defs/><g><!--class Exercise--><g class="entity" data-entity="Exercise" data-source-line="1" data-uid="ent0002" id="entity_Exercise"><rect fill="#F1F1F1" height="153.7813" rx="2.5" ry="2.5" style="stroke:#181818;stroke-width:0.5;" width="283.1885" x="236.64" y="854.61"/><ellipse cx="344.4872" cy="870.61" fill="#ADD1B2" rx="11" ry="11" style="stroke:#181818;stroke-width:1;"/><path d="M348.5965,876.61 L340.8778,876.61 L340.8778,864.2194 L348.5965,864.2194 L348.5965,866.3756 L343.3309,866.3756 L343.3309,869.0475 L348.0965,869.0475 L348.0965,871.2038 L343.3309,871.2038 L343.3309,874.4538 L348.5965,874.4538 L348.5965,876.61 Z " fill="#000000"/><text fill="#000000" font-family="sans-serif" font-size="14" lengthAdjust="spacing" textLength="58.9941" x="364.9872" y="875.4567">Exercise</text><line style="stroke:#181818;stroke-width:0.5;" x1="237.64" x2="518.8285" y1="886.61" y2="886.61"/><ellipse cx="247.64" cy="900.2584" fill="#000000" rx="3" ry="3" style="stroke:#000000;stroke-width:1;"/><text fill="#000000" font-family="sans-serif" font-size="14" lengthAdjust="spacing" textLength="153.9316" x="256.64" y="903.6051">slug : String &#171;unique&#187;</text><line style="stroke:#181818;stroke-width:1;" x1="237.64" x2="518.8285" y1="910.9069" y2="910.9069"/><ellipse cx="247.64" cy="924.5553" fill="#000000" rx="3" ry="3" style="stroke:#000000;stroke-width:1;"/><text fill="#000000" font-family="sans-serif" font-size="14" lengthAdjust="spacing" textLength="257.1885" x="256.64" y="927.902">layout : Ref&lt;KeyboardLayout&gt; &#171;FK&#187;</text><ellipse cx="247.64" cy="940.8522" fill="#000000" rx="3" ry="3" style="stroke:#000000;stroke-width:1;"/><text fill="#000000" font-family="sans-serif" font-size="14" lengthAdjust="spacing" textLength="119.1709" x="256.64" y="944.1989">keys : KeyInput[]</text><ellipse cx="247.64" cy="957.1491" fill="#000000" rx="3" ry="3" style="stroke:#000000;stroke-width:1;"/><text fill="#000000" font-family="sans-serif" font-size="14" lengthAdjust="spacing" textLength="199.8008" x="256.64" y="960.4957">type : ExerciseType &#171;enum&#187;</text><ellipse cx="247.64" cy="973.4459" fill="#000000" rx="3" ry="3" style="stroke:#000000;stroke-width:1;"/><text fill="#000000" font-family="sans-serif" font-size="14" lengthAdjust="spacing" textLength="158.6074" x="256.64" y="976.7926">hash : String &#171;unique&#187;</text><line style="stroke:#181818;stroke-width:1;" x1="237.64" x2="518.8285" y1="984.0944" y2="984.0944"/><text fill="#000000" font-family="sans-serif" font-size="14" lengthAdjust="spacing" textLength="129.8896" x="242.64" y="1001.0895">timestamps : Date</text></g><!--class KeyInput--><g class="entity" data-entity="KeyInput" data-source-line="12" data-uid="ent0003" id="entity_KeyInput"><rect fill="#F1F1F1" height="80.5938" rx="2.5" ry="2.5" style="stroke:#181818;stroke-width:0.5;" width="180.4717" x="7" y="1482.07"/><ellipse cx="61.8208" cy="1498.07" fill="#ADD1B2" rx="11" ry="11" style="stroke:#181818;stroke-width:1;"/><path d="M65.9302,1504.07 L58.2114,1504.07 L58.2114,1491.6794 L65.9302,1491.6794 L65.9302,1493.8356 L60.6646,1493.8356 L60.6646,1496.5075 L65.4302,1496.5075 L65.4302,1498.6638 L60.6646,1498.6638 L60.6646,1501.9138 L65.9302,1501.9138 L65.9302,1504.07 Z " fill="#000000"/><text fill="#000000" font-family="sans-serif" font-size="14" lengthAdjust="spacing" textLength="62.3301" x="82.3208" y="1502.9167">KeyInput</text><line style="stroke:#181818;stroke-width:0.5;" x1="8" x2="186.4717" y1="1514.07" y2="1514.07"/><ellipse cx="18" cy="1527.7184" fill="#000000" rx="3" ry="3" style="stroke:#000000;stroke-width:1;"/><text fill="#000000" font-family="sans-serif" font-size="14" lengthAdjust="spacing" textLength="109.2998" x="27" y="1531.0651">code : KeyCode</text><ellipse cx="18" cy="1544.0153" fill="#000000" rx="3" ry="3" style="stroke:#000000;stroke-width:1;"/><text fill="#000000" font-family="sans-serif" font-size="14" lengthAdjust="spacing" textLength="154.4717" x="27" y="1547.362">modifier : ModifierKey</text><line style="stroke:#181818;stroke-width:0.5;" x1="8" x2="186.4717" y1="1554.6638" y2="1554.6638"/></g><!--class ExerciseSet--><g class="entity" data-entity="ExerciseSet" data-source-line="17" data-uid="ent0004" id="entity_ExerciseSet"><rect fill="#F1F1F1" height="162.0781" rx="2.5" ry="2.5" style="stroke:#181818;stroke-width:0.5;" width="345.7646" x="436.35" y="615.53"/><ellipse cx="563.9906" cy="631.53" fill="#ADD1B2" rx="11" ry="11" style="stroke:#181818;stroke-width:1;"/><path d="M568.1,637.53 L560.3813,637.53 L560.3813,625.1394 L568.1,625.1394 L568.1,627.2956 L562.8344,627.2956 L562.8344,629.9675 L567.6,629.9675 L567.6,632.1238 L562.8344,632.1238 L562.8344,635.3738 L568.1,635.3738 L568.1,637.53 Z " fill="#000000"/><text fill="#000000" font-family="sans-serif" font-size="14" lengthAdjust="spacing" textLength="81.9834" x="584.4906" y="636.3767">ExerciseSet</text><line style="stroke:#181818;stroke-width:0.5;" x1="437.35" x2="781.1146" y1="647.53" y2="647.53"/><ellipse cx="447.35" cy="661.1784" fill="#000000" rx="3" ry="3" style="stroke:#000000;stroke-width:1;"/><text fill="#000000" font-family="sans-serif" font-size="14" lengthAdjust="spacing" textLength="95.1016" x="456.35" y="664.5251">name : String</text><ellipse cx="447.35" cy="677.4753" fill="#000000" rx="3" ry="3" style="stroke:#000000;stroke-width:1;"/><text fill="#000000" font-family="sans-serif" font-size="14" lengthAdjust="spacing" textLength="133.2393" x="456.35" y="680.822">description : String</text><ellipse cx="447.35" cy="693.7722" fill="#000000" rx="3" ry="3" style="stroke:#000000;stroke-width:1;"/><text fill="#000000" font-family="sans-serif" font-size="14" lengthAdjust="spacing" textLength="235.1357" x="456.35" y="697.1189">exercises : Ref&lt;Exercise&gt;[] &#171;FK&#187;</text><ellipse cx="447.35" cy="710.0691" fill="#000000" rx="3" ry="3" style="stroke:#000000;stroke-width:1;"/><text fill="#000000" font-family="sans-serif" font-size="14" lengthAdjust="spacing" textLength="319.7646" x="456.35" y="713.4157">keyboardProfile : Ref&lt;KeyboardProfile&gt; &#171;FK&#187;</text><ellipse cx="447.35" cy="726.3659" fill="#000000" rx="3" ry="3" style="stroke:#000000;stroke-width:1;"/><text fill="#000000" font-family="sans-serif" font-size="14" lengthAdjust="spacing" textLength="210.0479" x="456.35" y="729.7126">version : Number &#171;default: 0&#187;</text><ellipse cx="447.35" cy="742.6628" fill="#000000" rx="3" ry="3" style="stroke:#000000;stroke-width:1;"/><text fill="#000000" font-family="sans-serif" font-size="14" lengthAdjust="spacing" textLength="251.3574" x="456.35" y="746.0095">generated : Boolean &#171;default: true&#187;</text><line style="stroke:#181818;stroke-width:1;" x1="437.35" x2="781.1146" y1="753.3113" y2="753.3113"/><text fill="#000000" font-family="sans-serif" font-size="14" lengthAdjust="spacing" textLength="129.8896" x="442.35" y="770.3064">timestamps : Date</text></g><!--class KeyboardProfile--><g class="entity" data-entity="KeyboardProfile" data-source-line="28" data-uid="ent0005" id="entity_KeyboardProfile"><rect fill="#F1F1F1" height="145.7813" rx="2.5" ry="2.5" style="stroke:#181818;stroke-width:0.5;" width="440.873" x="666.8" y="858.61"/><ellipse cx="827.5676" cy="874.61" fill="#ADD1B2" rx="11" ry="11" style="stroke:#181818;stroke-width:1;"/><path d="M831.677,880.61 L823.9582,880.61 L823.9582,868.2194 L831.677,868.2194 L831.677,870.3756 L826.4113,870.3756 L826.4113,873.0475 L831.177,873.0475 L831.177,875.2038 L826.4113,875.2038 L826.4113,878.4538 L831.677,878.4538 L831.677,880.61 Z " fill="#000000"/><text fill="#000000" font-family="sans-serif" font-size="14" lengthAdjust="spacing" textLength="110.8379" x="848.0676" y="879.4567">KeyboardProfile</text><line style="stroke:#181818;stroke-width:0.5;" x1="667.8" x2="1106.673" y1="890.61" y2="890.61"/><ellipse cx="677.8" cy="904.2584" fill="#000000" rx="3" ry="3" style="stroke:#000000;stroke-width:1;"/><text fill="#000000" font-family="sans-serif" font-size="14" lengthAdjust="spacing" textLength="388.0215" x="686.8" y="907.6051">formFactor : FormFactor &#171;enum, default: SixtyPercent&#187;</text><ellipse cx="677.8" cy="920.5553" fill="#000000" rx="3" ry="3" style="stroke:#000000;stroke-width:1;"/><text fill="#000000" font-family="sans-serif" font-size="14" lengthAdjust="spacing" textLength="238.9844" x="686.8" y="923.902">format : KeyboardFormat &#171;enum&#187;</text><ellipse cx="677.8" cy="936.8522" fill="#000000" rx="3" ry="3" style="stroke:#000000;stroke-width:1;"/><text fill="#000000" font-family="sans-serif" font-size="14" lengthAdjust="spacing" textLength="257.1885" x="686.8" y="940.1989">layout : Ref&lt;KeyboardLayout&gt; &#171;FK&#187;</text><ellipse cx="677.8" cy="953.1491" fill="#000000" rx="3" ry="3" style="stroke:#000000;stroke-width:1;"/><text fill="#000000" font-family="sans-serif" font-size="14" lengthAdjust="spacing" textLength="414.873" x="686.8" y="956.4957">keyFingerMappingScheme : Ref&lt;KeyFingerMapping&gt; &#171;FK&#187;</text><ellipse cx="677.8" cy="969.4459" fill="#000000" rx="3" ry="3" style="stroke:#000000;stroke-width:1;"/><text fill="#000000" font-family="sans-serif" font-size="14" lengthAdjust="spacing" textLength="389.0605" x="686.8" y="972.7926">homeRow : HomeRow &#171;default: DEFAULT_HOME_ROW&#187;</text><line style="stroke:#181818;stroke-width:1;" x1="667.8" x2="1106.673" y1="980.0944" y2="980.0944"/><text fill="#000000" font-family="sans-serif" font-size="14" lengthAdjust="spacing" textLength="129.8896" x="672.8" y="997.0895">timestamps : Date</text></g><!--class KeyboardLayout--><g class="entity" data-entity="KeyboardLayout" data-source-line="38" data-uid="ent0006" id="entity_KeyboardLayout"><rect fill="#F1F1F1" height="104.8906" rx="2.5" ry="2.5" style="stroke:#181818;stroke-width:0.5;" width="514.5371" x="120.97" y="1105.84"/><ellipse cx="316.8162" cy="1121.84" fill="#ADD1B2" rx="11" ry="11" style="stroke:#181818;stroke-width:1;"/><path d="M320.9256,1127.84 L313.2068,1127.84 L313.2068,1115.4494 L320.9256,1115.4494 L320.9256,1117.6056 L315.6599,1117.6056 L315.6599,1120.2775 L320.4256,1120.2775 L320.4256,1122.4338 L315.6599,1122.4338 L315.6599,1125.6838 L320.9256,1125.6838 L320.9256,1127.84 Z " fill="#000000"/><text fill="#000000" font-family="sans-serif" font-size="14" lengthAdjust="spacing" textLength="114.3447" x="337.3162" y="1126.6867">KeyboardLayout</text><line style="stroke:#181818;stroke-width:0.5;" x1="121.97" x2="634.5071" y1="1137.84" y2="1137.84"/><ellipse cx="131.97" cy="1151.4884" fill="#000000" rx="3" ry="3" style="stroke:#000000;stroke-width:1;"/><text fill="#000000" font-family="sans-serif" font-size="14" lengthAdjust="spacing" textLength="363.6104" x="140.97" y="1154.8351">layoutId : KeyboardLayoutId &#171;enum, unique, index&#187;</text><line style="stroke:#181818;stroke-width:1;" x1="121.97" x2="634.5071" y1="1162.1369" y2="1162.1369"/><ellipse cx="131.97" cy="1175.7853" fill="#000000" rx="3" ry="3" style="stroke:#000000;stroke-width:1;"/><text fill="#000000" font-family="sans-serif" font-size="14" lengthAdjust="spacing" textLength="488.5371" x="140.97" y="1179.132">layoutMap : Record&lt;ModifierKey, Record&lt;KeyCode, KeyDefinition&gt;&gt;</text><line style="stroke:#181818;stroke-width:1;" x1="121.97" x2="634.5071" y1="1186.4338" y2="1186.4338"/><text fill="#000000" font-family="sans-serif" font-size="14" lengthAdjust="spacing" textLength="129.8896" x="126.97" y="1203.4289">timestamps : Date</text></g><!--class KeyDefinition--><g class="entity" data-entity="KeyDefinition" data-source-line="46" data-uid="ent0007" id="entity_KeyDefinition"><rect fill="#F1F1F1" height="96.8906" rx="2.5" ry="2.5" style="stroke:#181818;stroke-width:0.5;" width="192.8857" x="200.79" y="1308.18"/><ellipse cx="246.0473" cy="1324.18" fill="#ADD1B2" rx="11" ry="11" style="stroke:#181818;stroke-width:1;"/><path d="M250.1567,1330.18 L242.4379,1330.18 L242.4379,1317.7894 L250.1567,1317.7894 L250.1567,1319.9456 L244.8911,1319.9456 L244.8911,1322.6175 L249.6567,1322.6175 L249.6567,1324.7738 L244.8911,1324.7738 L244.8911,1328.0238 L250.1567,1328.0238 L250.1567,1330.18 Z " fill="#000000"/><text fill="#000000" font-family="sans-serif" font-size="14" lengthAdjust="spacing" textLength="93.8711" x="266.5473" y="1329.0267">KeyDefinition</text><line style="stroke:#181818;stroke-width:0.5;" x1="201.79" x2="392.6757" y1="1340.18" y2="1340.18"/><ellipse cx="211.79" cy="1353.8284" fill="#000000" rx="3" ry="3" style="stroke:#000000;stroke-width:1;"/><text fill="#000000" font-family="sans-serif" font-size="14" lengthAdjust="spacing" textLength="86.3037" x="220.79" y="1357.1751">char : String</text><ellipse cx="211.79" cy="1370.1253" fill="#000000" rx="3" ry="3" style="stroke:#000000;stroke-width:1;"/><text fill="#000000" font-family="sans-serif" font-size="14" lengthAdjust="spacing" textLength="166.8857" x="220.79" y="1373.472">type : KeyType &#171;enum&#187;</text><ellipse cx="211.79" cy="1386.4222" fill="#000000" rx="3" ry="3" style="stroke:#000000;stroke-width:1;"/><text fill="#000000" font-family="sans-serif" font-size="14" lengthAdjust="spacing" textLength="158.0469" x="220.79" y="1389.7689">alternates : KeyInput[]</text><line style="stroke:#181818;stroke-width:0.5;" x1="201.79" x2="392.6757" y1="1397.0706" y2="1397.0706"/></g><!--class KeyFingerMapping--><g class="entity" data-entity="KeyFingerMapping" data-source-line="52" data-uid="ent0008" id="entity_KeyFingerMapping"><rect fill="#F1F1F1" height="145.7813" rx="2.5" ry="2.5" style="stroke:#181818;stroke-width:0.5;" width="532.1123" x="670.18" y="1085.39"/><ellipse cx="866.8704" cy="1101.39" fill="#ADD1B2" rx="11" ry="11" style="stroke:#181818;stroke-width:1;"/><path d="M870.9798,1107.39 L863.2611,1107.39 L863.2611,1094.9994 L870.9798,1094.9994 L870.9798,1097.1556 L865.7142,1097.1556 L865.7142,1099.8275 L870.4798,1099.8275 L870.4798,1101.9838 L865.7142,1101.9838 L865.7142,1105.2338 L870.9798,1105.2338 L870.9798,1107.39 Z " fill="#000000"/><text fill="#000000" font-family="sans-serif" font-size="14" lengthAdjust="spacing" textLength="130.2314" x="887.3704" y="1106.2367">KeyFingerMapping</text><line style="stroke:#181818;stroke-width:0.5;" x1="671.18" x2="1201.2923" y1="1117.39" y2="1117.39"/><ellipse cx="681.18" cy="1131.0384" fill="#000000" rx="3" ry="3" style="stroke:#000000;stroke-width:1;"/><text fill="#000000" font-family="sans-serif" font-size="14" lengthAdjust="spacing" textLength="506.1123" x="690.18" y="1134.3851">schemeType : KeyFingerMappingSchemeType &#171;enum, default: Custom&#187;</text><ellipse cx="681.18" cy="1147.3353" fill="#000000" rx="3" ry="3" style="stroke:#000000;stroke-width:1;"/><text fill="#000000" font-family="sans-serif" font-size="14" lengthAdjust="spacing" textLength="95.1016" x="690.18" y="1150.682">name : String</text><ellipse cx="681.18" cy="1163.6322" fill="#000000" rx="3" ry="3" style="stroke:#000000;stroke-width:1;"/><text fill="#000000" font-family="sans-serif" font-size="14" lengthAdjust="spacing" textLength="133.2393" x="690.18" y="1166.9789">description : String</text><ellipse cx="681.18" cy="1179.9291" fill="#000000" rx="3" ry="3" style="stroke:#000000;stroke-width:1;"/><text fill="#000000" font-family="sans-serif" font-size="14" lengthAdjust="spacing" textLength="377.918" x="690.18" y="1183.2757">keyFingerMappingScheme : Map&lt;KeyCode, Finger[]&gt;</text><ellipse cx="681.18" cy="1196.2259" fill="#000000" rx="3" ry="3" style="stroke:#000000;stroke-width:1;"/><text fill="#000000" font-family="sans-serif" font-size="14" lengthAdjust="spacing" textLength="89.0176" x="690.18" y="1199.5726">hash : String</text><line style="stroke:#181818;stroke-width:1;" x1="671.18" x2="1201.2923" y1="1206.8744" y2="1206.8744"/><text fill="#000000" font-family="sans-serif" font-size="14" lengthAdjust="spacing" textLength="129.8896" x="676.18" y="1223.8695">timestamps : Date</text></g><!--class HomeRow--><g class="entity" data-entity="HomeRow" data-source-line="62" data-uid="ent0009" id="entity_HomeRow"><rect fill="#F1F1F1" height="64.2969" rx="2.5" ry="2.5" style="stroke:#181818;stroke-width:0.5;" width="178.0791" x="1237.2" y="1126.14"/><ellipse cx="1286.4461" cy="1142.14" fill="#ADD1B2" rx="11" ry="11" style="stroke:#181818;stroke-width:1;"/><path d="M1290.5555,1148.14 L1282.8367,1148.14 L1282.8367,1135.7494 L1290.5555,1135.7494 L1290.5555,1137.9056 L1285.2898,1137.9056 L1285.2898,1140.5775 L1290.0555,1140.5775 L1290.0555,1142.7338 L1285.2898,1142.7338 L1285.2898,1145.9838 L1290.5555,1145.9838 L1290.5555,1148.14 Z " fill="#000000"/><text fill="#000000" font-family="sans-serif" font-size="14" lengthAdjust="spacing" textLength="71.0869" x="1306.9461" y="1146.9867">HomeRow</text><line style="stroke:#181818;stroke-width:0.5;" x1="1238.2" x2="1414.2791" y1="1158.14" y2="1158.14"/><ellipse cx="1248.2" cy="1171.7884" fill="#000000" rx="3" ry="3" style="stroke:#000000;stroke-width:1;"/><text fill="#000000" font-family="sans-serif" font-size="14" lengthAdjust="spacing" textLength="152.0791" x="1257.2" y="1175.1351">configuration : Object</text><line style="stroke:#181818;stroke-width:0.5;" x1="1238.2" x2="1414.2791" y1="1182.4369" y2="1182.4369"/></g><!--class User--><g class="entity" data-entity="User" data-source-line="66" data-uid="ent0010" id="entity_User"><rect fill="#F1F1F1" height="341.3438" rx="2.5" ry="2.5" style="stroke:#181818;stroke-width:0.5;" width="286.8936" x="887.79" y="197.19"/><ellipse cx="1011.0317" cy="213.19" fill="#ADD1B2" rx="11" ry="11" style="stroke:#181818;stroke-width:1;"/><path d="M1015.1411,219.19 L1007.4223,219.19 L1007.4223,206.7994 L1015.1411,206.7994 L1015.1411,208.9556 L1009.8754,208.9556 L1009.8754,211.6275 L1014.6411,211.6275 L1014.6411,213.7838 L1009.8754,213.7838 L1009.8754,217.0338 L1015.1411,217.0338 L1015.1411,219.19 Z " fill="#000000"/><text fill="#000000" font-family="sans-serif" font-size="14" lengthAdjust="spacing" textLength="31.9102" x="1031.5317" y="218.0367">User</text><line style="stroke:#181818;stroke-width:0.5;" x1="888.79" x2="1173.6836" y1="229.19" y2="229.19"/><ellipse cx="898.79" cy="242.8384" fill="#000000" rx="3" ry="3" style="stroke:#000000;stroke-width:1;"/><text fill="#000000" font-family="sans-serif" font-size="14" lengthAdjust="spacing" textLength="204.1211" x="907.79" y="246.1851">github_id : Number &#171;unique&#187;</text><ellipse cx="898.79" cy="259.1353" fill="#000000" rx="3" ry="3" style="stroke:#000000;stroke-width:1;"/><text fill="#000000" font-family="sans-serif" font-size="14" lengthAdjust="spacing" textLength="206.6299" x="907.79" y="262.482">google_id : Number &#171;unique&#187;</text><ellipse cx="898.79" cy="275.4322" fill="#000000" rx="3" ry="3" style="stroke:#000000;stroke-width:1;"/><text fill="#000000" font-family="sans-serif" font-size="14" lengthAdjust="spacing" textLength="218.9209" x="907.79" y="278.7789">email : String &#171;unique, sparse&#187;</text><ellipse cx="898.79" cy="291.7291" fill="#000000" rx="3" ry="3" style="stroke:#000000;stroke-width:1;"/><text fill="#000000" font-family="sans-serif" font-size="14" lengthAdjust="spacing" textLength="139.8428" x="907.79" y="295.0757">emailVerified : Date</text><ellipse cx="898.79" cy="308.0259" fill="#000000" rx="3" ry="3" style="stroke:#000000;stroke-width:1;"/><text fill="#000000" font-family="sans-serif" font-size="14" lengthAdjust="spacing" textLength="126.7793" x="907.79" y="311.3726">imageURL : String</text><ellipse cx="898.79" cy="324.3228" fill="#000000" rx="3" ry="3" style="stroke:#000000;stroke-width:1;"/><text fill="#000000" font-family="sans-serif" font-size="14" lengthAdjust="spacing" textLength="232.0527" x="907.79" y="327.6695">role : Role &#171;enum, default: User&#187;</text><ellipse cx="898.79" cy="340.6197" fill="#000000" rx="3" ry="3" style="stroke:#000000;stroke-width:1;"/><text fill="#000000" font-family="sans-serif" font-size="14" lengthAdjust="spacing" textLength="126.8682" x="907.79" y="343.9664">settings : Settings</text><ellipse cx="898.79" cy="356.9166" fill="#000000" rx="3" ry="3" style="stroke:#000000;stroke-width:1;"/><text fill="#000000" font-family="sans-serif" font-size="14" lengthAdjust="spacing" textLength="110.3457" x="907.79" y="360.2632">lastLogin : Date</text><ellipse cx="898.79" cy="373.2134" fill="#000000" rx="3" ry="3" style="stroke:#000000;stroke-width:1;"/><text fill="#000000" font-family="sans-serif" font-size="14" lengthAdjust="spacing" textLength="124.0586" x="907.79" y="376.5601">firstName : String</text><ellipse cx="898.79" cy="389.5103" fill="#000000" rx="3" ry="3" style="stroke:#000000;stroke-width:1;"/><text fill="#000000" font-family="sans-serif" font-size="14" lengthAdjust="spacing" textLength="121.9531" x="907.79" y="392.857">lastName : String</text><ellipse cx="898.79" cy="405.8072" fill="#000000" rx="3" ry="3" style="stroke:#000000;stroke-width:1;"/><text fill="#000000" font-family="sans-serif" font-size="14" lengthAdjust="spacing" textLength="128.208" x="907.79" y="409.1539">dateOfBirth : Date</text><ellipse cx="898.79" cy="422.1041" fill="#000000" rx="3" ry="3" style="stroke:#000000;stroke-width:1;"/><text fill="#000000" font-family="sans-serif" font-size="14" lengthAdjust="spacing" textLength="176.415" x="907.79" y="425.4507">gender : Gender &#171;enum&#187;</text><ellipse cx="898.79" cy="438.4009" fill="#000000" rx="3" ry="3" style="stroke:#000000;stroke-width:1;"/><text fill="#000000" font-family="sans-serif" font-size="14" lengthAdjust="spacing" textLength="250.5508" x="907.79" y="441.7476">username : String &#171;unique, sparse&#187;</text><ellipse cx="898.79" cy="454.6978" fill="#000000" rx="3" ry="3" style="stroke:#000000;stroke-width:1;"/><text fill="#000000" font-family="sans-serif" font-size="14" lengthAdjust="spacing" textLength="96.6328" x="907.79" y="458.0445">locale : String</text><ellipse cx="898.79" cy="470.9947" fill="#000000" rx="3" ry="3" style="stroke:#000000;stroke-width:1;"/><text fill="#000000" font-family="sans-serif" font-size="14" lengthAdjust="spacing" textLength="204.5176" x="907.79" y="474.3414">registrationCompleted : Date</text><ellipse cx="898.79" cy="487.2916" fill="#000000" rx="3" ry="3" style="stroke:#000000;stroke-width:1;"/><text fill="#000000" font-family="sans-serif" font-size="14" lengthAdjust="spacing" textLength="260.8936" x="907.79" y="490.6382">keyboardSettings : KeyboardSettings</text><ellipse cx="898.79" cy="503.5884" fill="#000000" rx="3" ry="3" style="stroke:#000000;stroke-width:1;"/><text fill="#000000" font-family="sans-serif" font-size="14" lengthAdjust="spacing" textLength="122.6709" x="907.79" y="506.9351">timeZone : String</text><line style="stroke:#181818;stroke-width:1;" x1="888.79" x2="1173.6836" y1="514.2369" y2="514.2369"/><text fill="#000000" font-family="sans-serif" font-size="14" lengthAdjust="spacing" textLength="129.8896" x="893.79" y="531.232">timestamps : Date</text></g><!--class Settings--><g class="entity" data-entity="Settings" data-source-line="88" data-uid="ent0011" id="entity_Settings"><rect fill="#F1F1F1" height="80.5938" rx="2.5" ry="2.5" style="stroke:#181818;stroke-width:0.5;" width="182.3311" x="888.07" y="656.28"/><ellipse cx="946.2746" cy="672.28" fill="#ADD1B2" rx="11" ry="11" style="stroke:#181818;stroke-width:1;"/><path d="M950.384,678.28 L942.6652,678.28 L942.6652,665.8894 L950.384,665.8894 L950.384,668.0456 L945.1183,668.0456 L945.1183,670.7175 L949.884,670.7175 L949.884,672.8738 L945.1183,672.8738 L945.1183,676.1238 L950.384,676.1238 L950.384,678.28 Z " fill="#000000"/><text fill="#000000" font-family="sans-serif" font-size="14" lengthAdjust="spacing" textLength="57.4219" x="966.7746" y="677.1267">Settings</text><line style="stroke:#181818;stroke-width:0.5;" x1="889.07" x2="1069.4011" y1="688.28" y2="688.28"/><ellipse cx="899.07" cy="701.9284" fill="#000000" rx="3" ry="3" style="stroke:#000000;stroke-width:1;"/><text fill="#000000" font-family="sans-serif" font-size="14" lengthAdjust="spacing" textLength="100.625" x="908.07" y="705.2751">theme : String</text><ellipse cx="899.07" cy="718.2253" fill="#000000" rx="3" ry="3" style="stroke:#000000;stroke-width:1;"/><text fill="#000000" font-family="sans-serif" font-size="14" lengthAdjust="spacing" textLength="156.3311" x="908.07" y="721.572">notifications : Boolean</text><line style="stroke:#181818;stroke-width:0.5;" x1="889.07" x2="1069.4011" y1="728.8738" y2="728.8738"/></g><!--class KeyboardSettings--><g class="entity" data-entity="KeyboardSettings" data-source-line="93" data-uid="ent0012" id="entity_KeyboardSettings"><rect fill="#F1F1F1" height="96.8906" rx="2.5" ry="2.5" style="stroke:#181818;stroke-width:0.5;" width="402.4072" x="1105.03" y="648.13"/><ellipse cx="1239.8962" cy="664.13" fill="#ADD1B2" rx="11" ry="11" style="stroke:#181818;stroke-width:1;"/><path d="M1244.0056,670.13 L1236.2868,670.13 L1236.2868,657.7394 L1244.0056,657.7394 L1244.0056,659.8956 L1238.74,659.8956 L1238.74,662.5675 L1243.5056,662.5675 L1243.5056,664.7238 L1238.74,664.7238 L1238.74,667.9738 L1244.0056,667.9738 L1244.0056,670.13 Z " fill="#000000"/><text fill="#000000" font-family="sans-serif" font-size="14" lengthAdjust="spacing" textLength="124.1748" x="1260.3962" y="668.9767">KeyboardSettings</text><line style="stroke:#181818;stroke-width:0.5;" x1="1106.03" x2="1506.4372" y1="680.13" y2="680.13"/><ellipse cx="1116.03" cy="693.7784" fill="#000000" rx="3" ry="3" style="stroke:#000000;stroke-width:1;"/><text fill="#000000" font-family="sans-serif" font-size="14" lengthAdjust="spacing" textLength="178.0146" x="1125.03" y="697.1251">system : System &#171;enum&#187;</text><ellipse cx="1116.03" cy="710.0753" fill="#000000" rx="3" ry="3" style="stroke:#000000;stroke-width:1;"/><text fill="#000000" font-family="sans-serif" font-size="14" lengthAdjust="spacing" textLength="350.998" x="1125.03" y="713.422">keyboardProfileIds : Ref&lt;KeyboardProfile&gt;[] &#171;FK&#187;</text><ellipse cx="1116.03" cy="726.3722" fill="#000000" rx="3" ry="3" style="stroke:#000000;stroke-width:1;"/><text fill="#000000" font-family="sans-serif" font-size="14" lengthAdjust="spacing" textLength="376.4072" x="1125.03" y="729.7189">activeKeyboardProfileId : Ref&lt;KeyboardProfile&gt; &#171;FK&#187;</text><line style="stroke:#181818;stroke-width:0.5;" x1="1106.03" x2="1506.4372" y1="737.0206" y2="737.0206"/></g><!--class UserKeyboardProfile--><g class="entity" data-entity="UserKeyboardProfile" data-source-line="99" data-uid="ent0013" id="entity_UserKeyboardProfile"><rect fill="#F1F1F1" height="113.1875" rx="2.5" ry="2.5" style="stroke:#181818;stroke-width:0.5;" width="358.7803" x="655.85" y="7"/><ellipse cx="759.6161" cy="23" fill="#ADD1B2" rx="11" ry="11" style="stroke:#181818;stroke-width:1;"/><path d="M763.7255,29 L756.0067,29 L756.0067,16.6094 L763.7255,16.6094 L763.7255,18.7656 L758.4599,18.7656 L758.4599,21.4375 L763.2255,21.4375 L763.2255,23.5938 L758.4599,23.5938 L758.4599,26.8438 L763.7255,26.8438 L763.7255,29 Z " fill="#000000"/><text fill="#000000" font-family="sans-serif" font-size="14" lengthAdjust="spacing" textLength="142.748" x="780.1161" y="27.8467">UserKeyboardProfile</text><line style="stroke:#181818;stroke-width:0.5;" x1="656.85" x2="1013.6303" y1="39" y2="39"/><ellipse cx="666.85" cy="52.6484" fill="#000000" rx="3" ry="3" style="stroke:#000000;stroke-width:1;"/><text fill="#000000" font-family="sans-serif" font-size="14" lengthAdjust="spacing" textLength="174.624" x="675.85" y="55.9951">userId : Ref&lt;User&gt; &#171;FK&#187;</text><ellipse cx="666.85" cy="68.9453" fill="#000000" rx="3" ry="3" style="stroke:#000000;stroke-width:1;"/><text fill="#000000" font-family="sans-serif" font-size="14" lengthAdjust="spacing" textLength="332.7803" x="675.85" y="72.292">keyboardProfileId : Ref&lt;KeyboardProfile&gt; &#171;FK&#187;</text><ellipse cx="666.85" cy="85.2422" fill="#000000" rx="3" ry="3" style="stroke:#000000;stroke-width:1;"/><text fill="#000000" font-family="sans-serif" font-size="14" lengthAdjust="spacing" textLength="327.2021" x="675.85" y="88.5889">currentExerciseSetId : Ref&lt;ExerciseSet&gt; &#171;FK&#187;</text><line style="stroke:#181818;stroke-width:1;" x1="656.85" x2="1013.6303" y1="95.8906" y2="95.8906"/><text fill="#000000" font-family="sans-serif" font-size="14" lengthAdjust="spacing" textLength="129.8896" x="661.85" y="112.8857">timestamps : Date</text></g><!--link Exercise to KeyInput--><g class="link" data-entity-1="Exercise" data-entity-2="KeyInput" data-source-line="107" data-uid="lnk14" id="link_Exercise_KeyInput"><path codeLine="107" d="M228.9622,980.6351 C177.9322,1004.2951 132.94,1035.69 103.24,1085.39 C27.14,1212.76 59.4404,1383.2502 80.9204,1464.3302" fill="none" id="Exercise-KeyInput" style="stroke:#181818;stroke-width:1;"/><line style="stroke:#181818;stroke-width:1;" x1="230.9085" x2="234.2736" y1="975.3236" y2="982.5815"/><line style="stroke:#181818;stroke-width:1;" x1="228.1868" x2="231.5519" y1="976.5855" y2="983.8434"/><line style="stroke:#181818;stroke-width:1;" x1="228.9622" x2="236.22" y1="980.6351" y2="977.27"/><line style="stroke:#181818;stroke-width:1;" x1="83.4813" x2="91.3299" y1="1473.9968" y2="1480.1935"/><line style="stroke:#181818;stroke-width:1;" x1="83.4813" x2="79.7301" y1="1473.9968" y2="1483.2665"/><line style="stroke:#181818;stroke-width:1;" x1="83.4813" x2="85.53" y1="1473.9968" y2="1481.73"/><ellipse cx="81.9448" cy="1468.1969" fill="none" rx="4" ry="4" style="stroke:#181818;stroke-width:1;"/><text fill="#000000" font-family="sans-serif" font-size="13" lengthAdjust="spacing" textLength="55.0278" x="58.74" y="1274.2469">contains</text></g><!--link Exercise to KeyboardLayout--><g class="link" data-entity-1="Exercise" data-entity-2="KeyboardLayout" data-source-line="108" data-uid="lnk15" id="link_Exercise_KeyboardLayout"><path codeLine="108" d="M378.24,1016.6 C378.24,1048.45 378.24,1058.64 378.24,1087.35" fill="none" id="Exercise-KeyboardLayout" style="stroke:#181818;stroke-width:1;"/><line style="stroke:#181818;stroke-width:1;" x1="374.24" x2="382.24" y1="1012.6" y2="1012.6"/><line style="stroke:#181818;stroke-width:1;" x1="374.24" x2="382.24" y1="1015.6" y2="1015.6"/><line style="stroke:#181818;stroke-width:1;" x1="378.24" x2="378.24" y1="1016.6" y2="1008.6"/><line style="stroke:#181818;stroke-width:1;" x1="378.24" x2="384.24" y1="1097.35" y2="1105.35"/><line style="stroke:#181818;stroke-width:1;" x1="378.24" x2="372.24" y1="1097.35" y2="1105.35"/><line style="stroke:#181818;stroke-width:1;" x1="378.24" x2="378.24" y1="1097.35" y2="1105.35"/><ellipse cx="378.24" cy="1091.35" fill="none" rx="4" ry="4" style="stroke:#181818;stroke-width:1;"/><text fill="#000000" font-family="sans-serif" font-size="13" lengthAdjust="spacing" textLength="69.418" x="379.24" y="1051.4569">references</text></g><!--link ExerciseSet to Exercise--><g class="link" data-entity-1="ExerciseSet" data-entity-2="Exercise" data-source-line="109" data-uid="lnk16" id="link_ExerciseSet_Exercise"><path codeLine="109" d="M523.7862,783.7398 C499.2662,808.4598 490.6729,817.1173 466.4529,841.5473" fill="none" id="ExerciseSet-Exercise" style="stroke:#181818;stroke-width:1;"/><line style="stroke:#181818;stroke-width:1;" x1="523.7632" x2="529.443" y1="778.083" y2="783.7168"/><line style="stroke:#181818;stroke-width:1;" x1="521.6505" x2="527.3303" y1="780.2129" y2="785.8467"/><line style="stroke:#181818;stroke-width:1;" x1="523.7862" x2="529.42" y1="783.7398" y2="778.06"/><line style="stroke:#181818;stroke-width:1;" x1="459.4124" x2="458.0409" y1="848.6488" y2="858.5543"/><line style="stroke:#181818;stroke-width:1;" x1="459.4124" x2="449.5191" y1="848.6488" y2="850.1057"/><line style="stroke:#181818;stroke-width:1;" x1="459.4124" x2="453.78" y1="848.6488" y2="854.33"/><ellipse cx="463.6367" cy="844.3879" fill="none" rx="4" ry="4" style="stroke:#181818;stroke-width:1;"/><text fill="#000000" font-family="sans-serif" font-size="13" lengthAdjust="spacing" textLength="69.418" x="494.74" y="820.6769">references</text></g><!--link ExerciseSet to KeyboardProfile--><g class="link" data-entity-1="ExerciseSet" data-entity-2="KeyboardProfile" data-source-line="110" data-uid="lnk17" id="link_ExerciseSet_KeyboardProfile"><path codeLine="110" d="M692.5818,783.4803 C709.1018,799.4503 721.01,810.17 738.24,824.61 C751.73,835.93 751.9305,836.5863 766.5905,847.4763" fill="none" id="ExerciseSet-KeyboardProfile" style="stroke:#181818;stroke-width:1;"/><line style="stroke:#181818;stroke-width:1;" x1="686.9257" x2="692.486" y1="783.576" y2="777.8243"/><line style="stroke:#181818;stroke-width:1;" x1="689.0827" x2="694.643" y1="785.6612" y2="779.9094"/><line style="stroke:#181818;stroke-width:1;" x1="692.5818" x2="686.83" y1="783.4803" y2="777.92"/><line style="stroke:#181818;stroke-width:1;" x1="774.618" x2="784.6179" y1="853.4395" y2="853.3935"/><line style="stroke:#181818;stroke-width:1;" x1="774.618" x2="777.4621" y1="853.4395" y2="863.0265"/><line style="stroke:#181818;stroke-width:1;" x1="774.618" x2="781.04" y1="853.4395" y2="858.21"/><ellipse cx="769.8015" cy="849.8616" fill="none" rx="4" ry="4" style="stroke:#181818;stroke-width:1;"/><text fill="#000000" font-family="sans-serif" font-size="13" lengthAdjust="spacing" textLength="69.418" x="739.24" y="820.6769">references</text></g><!--link KeyboardProfile to KeyboardLayout--><g class="link" data-entity-1="KeyboardProfile" data-entity-2="KeyboardLayout" data-source-line="111" data-uid="lnk18" id="link_KeyboardProfile_KeyboardLayout"><path codeLine="111" d="M716.0621,1008.0923 C641.9621,1040.8223 579.8367,1068.2605 512.2667,1098.0905" fill="none" id="KeyboardProfile-KeyboardLayout" style="stroke:#181818;stroke-width:1;"/><line style="stroke:#181818;stroke-width:1;" x1="718.1049" x2="721.3372" y1="1002.8172" y2="1010.1351"/><line style="stroke:#181818;stroke-width:1;" x1="715.3606" x2="718.593" y1="1004.0293" y2="1011.3473"/><line style="stroke:#181818;stroke-width:1;" x1="716.0621" x2="723.38" y1="1008.0923" y2="1004.86"/><line style="stroke:#181818;stroke-width:1;" x1="503.1186" x2="498.2232" y1="1102.1291" y2="1110.8489"/><line style="stroke:#181818;stroke-width:1;" x1="503.1186" x2="493.3768" y1="1102.1291" y2="1099.8711"/><line style="stroke:#181818;stroke-width:1;" x1="503.1186" x2="495.8" y1="1102.1291" y2="1105.36"/><ellipse cx="508.6075" cy="1099.7059" fill="none" rx="4" ry="4" style="stroke:#181818;stroke-width:1;"/><text fill="#000000" font-family="sans-serif" font-size="13" lengthAdjust="spacing" textLength="69.418" x="633.74" y="1051.4569">references</text></g><!--link KeyboardProfile to KeyFingerMapping--><g class="link" data-entity-1="KeyboardProfile" data-entity-2="KeyFingerMapping" data-source-line="112" data-uid="lnk19" id="link_KeyboardProfile_KeyFingerMapping"><path codeLine="112" d="M904.7122,1012.6768 C910.3022,1038.3468 911.0686,1041.8125 916.6586,1067.4725" fill="none" id="KeyboardProfile-KeyFingerMapping" style="stroke:#181818;stroke-width:1;"/><line style="stroke:#181818;stroke-width:1;" x1="899.9527" x2="907.7695" y1="1009.6195" y2="1007.9173"/><line style="stroke:#181818;stroke-width:1;" x1="900.591" x2="908.4078" y1="1012.5508" y2="1010.8486"/><line style="stroke:#181818;stroke-width:1;" x1="904.7122" x2="903.01" y1="1012.6768" y2="1004.86"/><line style="stroke:#181818;stroke-width:1;" x1="918.7871" x2="926.3525" y1="1077.2433" y2="1083.7829"/><line style="stroke:#181818;stroke-width:1;" x1="918.7871" x2="914.6275" y1="1077.2433" y2="1086.3371"/><line style="stroke:#181818;stroke-width:1;" x1="918.7871" x2="920.49" y1="1077.2433" y2="1085.06"/><ellipse cx="917.51" cy="1071.3808" fill="none" rx="4" ry="4" style="stroke:#181818;stroke-width:1;"/><text fill="#000000" font-family="sans-serif" font-size="13" lengthAdjust="spacing" textLength="69.418" x="914.21" y="1051.4569">references</text></g><!--link KeyboardProfile to HomeRow--><g class="link" data-entity-1="KeyboardProfile" data-entity-2="HomeRow" data-source-line="113" data-uid="lnk20" id="link_KeyboardProfile_HomeRow"><path codeLine="113" d="M1066.2051,1008.0857 C1118.8751,1031.9857 1169.11,1056.58 1220.24,1085.39 C1241.64,1097.46 1249.5731,1102.1787 1268.4331,1115.3787" fill="none" id="KeyboardProfile-HomeRow" style="stroke:#181818;stroke-width:1;"/><line style="stroke:#181818;stroke-width:1;" x1="1060.9097" x2="1064.2154" y1="1010.0754" y2="1002.7903"/><line style="stroke:#181818;stroke-width:1;" x1="1063.6416" x2="1066.9473" y1="1011.315" y2="1004.03"/><line style="stroke:#181818;stroke-width:1;" x1="1066.2051" x2="1058.92" y1="1008.0857" y2="1004.78"/><line style="stroke:#181818;stroke-width:1;" x1="1276.6258" x2="1286.6204" y1="1121.1128" y2="1120.7844"/><line style="stroke:#181818;stroke-width:1;" x1="1276.6258" x2="1279.7396" y1="1121.1128" y2="1130.6156"/><line style="stroke:#181818;stroke-width:1;" x1="1276.6258" x2="1283.18" y1="1121.1128" y2="1125.7"/><ellipse cx="1271.7102" cy="1117.6723" fill="none" rx="4" ry="4" style="stroke:#181818;stroke-width:1;"/><text fill="#000000" font-family="sans-serif" font-size="13" lengthAdjust="spacing" textLength="55.0278" x="1159.41" y="1051.4569">contains</text></g><!--link KeyboardLayout to KeyDefinition--><g class="link" data-entity-1="KeyboardLayout" data-entity-2="KeyDefinition" data-source-line="114" data-uid="lnk21" id="link_KeyboardLayout_KeyDefinition"><path codeLine="114" d="M353.7974,1218.5247 C341.4174,1248.5147 335.8721,1261.9593 323.8021,1291.2293" fill="none" id="KeyboardLayout-KeyDefinition" style="stroke:#181818;stroke-width:1;"/><line style="stroke:#181818;stroke-width:1;" x1="351.6264" x2="359.0211" y1="1213.3011" y2="1216.3536"/><line style="stroke:#181818;stroke-width:1;" x1="350.4816" x2="357.8764" y1="1216.0741" y2="1219.1267"/><line style="stroke:#181818;stroke-width:1;" x1="353.7974" x2="356.85" y1="1218.5247" y2="1211.13"/><line style="stroke:#181818;stroke-width:1;" x1="319.9898" x2="322.4869" y1="1300.4741" y2="1310.1574"/><line style="stroke:#181818;stroke-width:1;" x1="319.9898" x2="311.3931" y1="1300.4741" y2="1305.5826"/><line style="stroke:#181818;stroke-width:1;" x1="319.9898" x2="316.94" y1="1300.4741" y2="1307.87"/><ellipse cx="322.2772" cy="1294.9273" fill="none" rx="4" ry="4" style="stroke:#181818;stroke-width:1;"/><text fill="#000000" font-family="sans-serif" font-size="13" lengthAdjust="spacing" textLength="55.0278" x="336.31" y="1274.2469">contains</text></g><!--link KeyDefinition to KeyInput--><g class="link" data-entity-1="KeyDefinition" data-entity-2="KeyInput" data-source-line="115" data-uid="lnk22" id="link_KeyDefinition_KeyInput"><path codeLine="115" d="M232.6601,1410.4881 C203.0301,1434.7481 187.5755,1447.3947 159.5055,1470.3847" fill="none" id="KeyDefinition-KeyInput" style="stroke:#181818;stroke-width:1;"/><line style="stroke:#181818;stroke-width:1;" x1="233.221" x2="238.2891" y1="1404.8591" y2="1411.049"/><line style="stroke:#181818;stroke-width:1;" x1="230.8998" x2="235.9679" y1="1406.7596" y2="1412.9495"/><line style="stroke:#181818;stroke-width:1;" x1="232.6601" x2="238.85" y1="1410.4881" y2="1405.42"/><line style="stroke:#181818;stroke-width:1;" x1="151.7691" x2="149.3818" y1="1476.721" y2="1486.4318"/><line style="stroke:#181818;stroke-width:1;" x1="151.7691" x2="141.7782" y1="1476.721" y2="1477.1482"/><line style="stroke:#181818;stroke-width:1;" x1="151.7691" x2="145.58" y1="1476.721" y2="1481.79"/><ellipse cx="156.4109" cy="1472.9192" fill="none" rx="4" ry="4" style="stroke:#181818;stroke-width:1;"/><text fill="#000000" font-family="sans-serif" font-size="13" lengthAdjust="spacing" textLength="55.0278" x="198.24" y="1448.1369">contains</text></g><!--link User to Settings--><g class="link" data-entity-1="User" data-entity-2="Settings" data-source-line="116" data-uid="lnk23" id="link_User_Settings"><path codeLine="116" d="M1002.9132,546.8207 C995.9332,590.7007 993.125,608.2531 988.375,638.1431" fill="none" id="User-Settings" style="stroke:#181818;stroke-width:1;"/><line style="stroke:#181818;stroke-width:1;" x1="999.5913" x2="1007.492" y1="542.242" y2="543.4987"/><line style="stroke:#181818;stroke-width:1;" x1="999.12" x2="1007.0207" y1="545.2047" y2="546.4615"/><line style="stroke:#181818;stroke-width:1;" x1="1002.9132" x2="1004.17" y1="546.8207" y2="538.92"/><line style="stroke:#181818;stroke-width:1;" x1="986.8056" x2="991.4756" y1="648.0191" y2="656.8617"/><line style="stroke:#181818;stroke-width:1;" x1="986.8056" x2="979.6244" y1="648.0191" y2="654.9783"/><line style="stroke:#181818;stroke-width:1;" x1="986.8056" x2="985.55" y1="648.0191" y2="655.92"/><ellipse cx="987.7473" cy="642.0935" fill="none" rx="4" ry="4" style="stroke:#181818;stroke-width:1;"/><text fill="#000000" font-family="sans-serif" font-size="13" lengthAdjust="spacing" textLength="55.0278" x="1000.05" y="581.5969">contains</text></g><!--link User to KeyboardSettings--><g class="link" data-entity-1="User" data-entity-2="KeyboardSettings" data-source-line="117" data-uid="lnk24" id="link_User_KeyboardSettings"><path codeLine="117" d="M1179.5227,545.0396 C1213.2027,585.0396 1229.6661,604.6211 1254.3461,633.9311" fill="none" id="User-KeyboardSettings" style="stroke:#181818;stroke-width:1;"/><line style="stroke:#181818;stroke-width:1;" x1="1173.8866" x2="1180.0062" y1="544.5562" y2="539.4034"/><line style="stroke:#181818;stroke-width:1;" x1="1175.8188" x2="1181.9384" y1="546.851" y2="541.6983"/><line style="stroke:#181818;stroke-width:1;" x1="1179.5227" x2="1174.37" y1="545.0396" y2="538.92"/><line style="stroke:#181818;stroke-width:1;" x1="1260.7872" x2="1270.5296" y1="641.5805" y2="643.8354"/><line style="stroke:#181818;stroke-width:1;" x1="1260.7872" x2="1261.3504" y1="641.5805" y2="651.5646"/><line style="stroke:#181818;stroke-width:1;" x1="1260.7872" x2="1265.94" y1="641.5805" y2="647.7"/><ellipse cx="1256.9225" cy="636.9909" fill="none" rx="4" ry="4" style="stroke:#181818;stroke-width:1;"/><text fill="#000000" font-family="sans-serif" font-size="13" lengthAdjust="spacing" textLength="55.0278" x="1210.44" y="581.5969">contains</text></g><!--link KeyboardSettings to KeyboardProfile--><g class="link" data-entity-1="KeyboardSettings" data-entity-2="KeyboardProfile" data-source-line="118" data-uid="lnk25" id="link_KeyboardSettings_KeyboardProfile"><path codeLine="118" d="M1213.1879,749.2973 C1154.7479,781.7873 1099.1226,812.7144 1033.1026,849.4144" fill="none" id="KeyboardSettings-KeyboardProfile" style="stroke:#181818;stroke-width:1;"/><line style="stroke:#181818;stroke-width:1;" x1="1214.7403" x2="1218.6276" y1="743.8576" y2="750.8497"/><line style="stroke:#181818;stroke-width:1;" x1="1212.1183" x2="1216.0056" y1="745.3153" y2="752.3074"/><line style="stroke:#181818;stroke-width:1;" x1="1213.1879" x2="1220.18" y1="749.2973" y2="745.41"/><line style="stroke:#181818;stroke-width:1;" x1="1024.3623" x2="1020.2852" y1="854.2731" y2="863.4042"/><line style="stroke:#181818;stroke-width:1;" x1="1024.3623" x2="1014.4548" y1="854.2731" y2="852.9158"/><line style="stroke:#181818;stroke-width:1;" x1="1024.3623" x2="1017.37" y1="854.2731" y2="858.16"/><ellipse cx="1029.6065" cy="851.3579" fill="none" rx="4" ry="4" style="stroke:#181818;stroke-width:1;"/><text fill="#000000" font-family="sans-serif" font-size="13" lengthAdjust="spacing" textLength="69.418" x="1097.74" y="820.6769">references</text></g><!--link UserKeyboardProfile to User--><g class="link" data-entity-1="UserKeyboardProfile" data-entity-2="User" data-source-line="119" data-uid="lnk26" id="link_UserKeyboardProfile_User"><path codeLine="119" d="M875.7638,127.1015 C890.0938,149.1915 893.246,154.0577 911.106,181.5977" fill="none" id="UserKeyboardProfile-User" style="stroke:#181818;stroke-width:1;"/><line style="stroke:#181818;stroke-width:1;" x1="870.2312" x2="876.9427" y1="125.9227" y2="121.5688"/><line style="stroke:#181818;stroke-width:1;" x1="871.8638" x2="878.5753" y1="128.4395" y2="124.0857"/><line style="stroke:#181818;stroke-width:1;" x1="875.7638" x2="871.41" y1="127.1015" y2="120.39"/><line style="stroke:#181818;stroke-width:1;" x1="916.5471" x2="925.9341" y1="189.9879" y2="193.4353"/><line style="stroke:#181818;stroke-width:1;" x1="916.5471" x2="915.8659" y1="189.9879" y2="199.9647"/><line style="stroke:#181818;stroke-width:1;" x1="916.5471" x2="920.9" y1="189.9879" y2="196.7"/><ellipse cx="913.2825" cy="184.9538" fill="none" rx="4" ry="4" style="stroke:#181818;stroke-width:1;"/><text fill="#000000" font-family="sans-serif" font-size="13" lengthAdjust="spacing" textLength="69.418" x="899.63" y="163.2569">references</text></g><!--link UserKeyboardProfile to KeyboardProfile--><g class="link" data-entity-1="UserKeyboardProfile" data-entity-2="KeyboardProfile" data-source-line="120" data-uid="lnk27" id="link_UserKeyboardProfile_KeyboardProfile"><path codeLine="120" d="M837.0518,128.5963 C840.6918,248.9763 850.68,533.31 870.24,777.61 C872.35,803.97 873.326,814.9164 876.236,840.3764" fill="none" id="UserKeyboardProfile-KeyboardProfile" style="stroke:#181818;stroke-width:1;"/><line style="stroke:#181818;stroke-width:1;" x1="832.9327" x2="840.9291" y1="124.7191" y2="124.4773"/><line style="stroke:#181818;stroke-width:1;" x1="833.0234" x2="841.0197" y1="127.7177" y2="127.4759"/><line style="stroke:#181818;stroke-width:1;" x1="837.0518" x2="836.81" y1="128.5963" y2="120.6"/><line style="stroke:#181818;stroke-width:1;" x1="877.3715" x2="884.2412" y1="850.3117" y2="857.5787"/><line style="stroke:#181818;stroke-width:1;" x1="877.3715" x2="872.3188" y1="850.3117" y2="858.9413"/><line style="stroke:#181818;stroke-width:1;" x1="877.3715" x2="878.28" y1="850.3117" y2="858.26"/><ellipse cx="876.6902" cy="844.3506" fill="none" rx="4" ry="4" style="stroke:#181818;stroke-width:1;"/><text fill="#000000" font-family="sans-serif" font-size="13" lengthAdjust="spacing" textLength="69.418" x="857.87" y="581.5969">references</text></g><!--link UserKeyboardProfile to ExerciseSet--><g class="link" data-entity-1="UserKeyboardProfile" data-entity-2="ExerciseSet" data-source-line="121" data-uid="lnk28" id="link_UserKeyboardProfile_ExerciseSet"><path codeLine="121" d="M782.0485,126.9803 C764.6085,149.5503 751,170.26 738.24,197.19 C672.32,336.32 639.5618,496.0774 623.3118,597.3474" fill="none" id="UserKeyboardProfile-ExerciseSet" style="stroke:#181818;stroke-width:1;"/><line style="stroke:#181818;stroke-width:1;" x1="781.3291" x2="787.6594" y1="121.3694" y2="126.2609"/><line style="stroke:#181818;stroke-width:1;" x1="779.4948" x2="785.8251" y1="123.7433" y2="128.6348"/><line style="stroke:#181818;stroke-width:1;" x1="782.0485" x2="786.94" y1="126.9803" y2="120.65"/><line style="stroke:#181818;stroke-width:1;" x1="621.7275" x2="626.3842" y1="607.221" y2="616.0706"/><line style="stroke:#181818;stroke-width:1;" x1="621.7275" x2="614.5358" y1="607.221" y2="614.1694"/><line style="stroke:#181818;stroke-width:1;" x1="621.7275" x2="620.46" y1="607.221" y2="615.12"/><ellipse cx="622.6781" cy="601.2968" fill="none" rx="4" ry="4" style="stroke:#181818;stroke-width:1;"/><text fill="#000000" font-family="sans-serif" font-size="13" lengthAdjust="spacing" textLength="69.418" x="739.24" y="372.4269">references</text></g><!--SRC=[dLPRRzem57xdLqHxh43QSnKXhHVM2begQ3TfLLMPv2HuI-pCThgYTlzznucTs0bGs1FEyNSk_iuDO8ggJV3fyXL4H2Ly2ju6GN0IoAnCWzDWgGHbQH269QE_InYFyN8qgX0PsV1I8MO1IJY5pOeJ4SyguHWL9jCAV1ByWer452AkML6gnwTAgZO5eDIwlTUVOGYip8tQciZrlW0KpK4gaXVQ-0LHCFWx681vZNLcNnFn6EeOpl5KYN8UquI2GF6DEUArQyJ6jeJ63YCvD45LaXXa96YXA6V-1HXjQHYoriQFJnrsAkBk14ze1XqwZTJZymM4hBtTblaA7n26CIIapDHfyDbWKc0Wa9COKMUSPq2O2rFY62RTI2mH2HVvX4IAQ_ucxKUTmc7Gk5hILxMvmwUZGHESrYMgJaTbUr8BlFGVKLqJf1p43IaAF2oZDUGEZTwbfxdcEIpu7uHUcPF3qCNbvCl3xFxvQdvp-RoOVp-IhJfGIrRzbklOUVBCYYnXTNaF0yfYUEst6JwWUbF4HHmwzJgqCbFQG-tX0XBAg2x9myDkTPgUMHFXbxJfMKJtsvLa2WH3kvrUzxrusMX6JPMo-yRubdmw_fpQEY-buZQ08rfpPytWTqja3NbysZAE3YBLL5KxWbX2qnAxievdlle9aN8L7YG8YqwfMfUhPngxRUwCG4HmdcQm3m4veLb_X0u3MH0XFTGt4BgYOliCVK5paiB3OkPp9tWzfFHFBo7w1SQi1ALGHnEpD4TJpbBDU4gPwogXGghRNW8rjY-DKMkUd56XrguD77bnDSs_rWUlEakfYzEnj8kDZ4SawpWKa5AfwiITyxp8GFbCsHc-RDyyxOZg_i5o-S4P75T7reGj3MMArOcGSONfYwe8PJlojqschZMvaGfoRQu-UBHrbjDrB7Vi9t-duIgWBp3jAd-mspgTi6Fnw4msfgfwsxDDF_HPDMOf13fsjdsZviWSbTqfi_ZW_Nqquc_D74G8jhyYbCbj66SZ85900XXG12qM_Ljue_uHSDhxO-7WkvS7nB9RnPkb1obTDQkteQNZkhNUBgOEtBdOGxSk4NllzEVM-sc_ZtlnDNU7qBobZgrUvVTGyFywSSl2rVa7]--></g></svg>